<svg width="32" height="32" viewBox="0 0 32 32" xmlns="http://www.w3.org/2000/svg">
        <defs>
            <linearGradient id="faviconGradient" x1="0%" y1="0%" x2="100%" y2="100%">
                <stop offset="0%" style="stop-color:#2563eb;stop-opacity:1" />
                <stop offset="100%" style="stop-color:#1d4ed8;stop-opacity:1" />
            </linearGradient>
        </defs>
        <rect width="32" height="32" rx="6" fill="url(#faviconGradient)"/>
        <g fill="white" transform="translate(4, 4)">
            <rect x="0" y="0" width="24" height="24" rx="3" fill="none" stroke="white" stroke-width="1.5"/>
            <rect x="3" y="3" width="18" height="6" rx="1" fill="white" opacity="0.9"/>
            <g transform="translate(3, 12)">
                <rect x="0" y="0" width="4" height="4" rx="1" fill="white" opacity="0.8"/>
                <rect x="5" y="0" width="4" height="4" rx="1" fill="white" opacity="0.8"/>
                <rect x="10" y="0" width="4" height="4" rx="1" fill="white" opacity="0.8"/>
                <rect x="15" y="0" width="3" height="4" rx="1" fill="white" opacity="0.8"/>
                <path d="M7 6 L11 6 M10 5 L11 6 L10 7" stroke="white" stroke-width="0.5" fill="none"/>
                <rect x="0" y="6" width="4" height="4" rx="1" fill="white" opacity="0.8"/>
                <rect x="5" y="6" width="4" height="4" rx="1" fill="white" opacity="0.8"/>
                <rect x="10" y="6" width="4" height="4" rx="1" fill="white" opacity="0.8"/>
                <rect x="15" y="6" width="3" height="4" rx="1" fill="white" opacity="0.8"/>
            </g>
        </g>
    </svg>