<svg width="512" height="512" viewBox="0 0 512 512" xmlns="http://www.w3.org/2000/svg">
        <defs>
            <linearGradient id="logoGradient" x1="0%" y1="0%" x2="100%" y2="100%">
                <stop offset="0%" style="stop-color:#2563eb;stop-opacity:1" />
                <stop offset="100%" style="stop-color:#1d4ed8;stop-opacity:1" />
            </linearGradient>
        </defs>
        <rect width="512" height="512" rx="80" fill="url(#logoGradient)"/>
        <g fill="white" transform="translate(128, 128)">
            <rect x="0" y="0" width="256" height="256" rx="32" fill="none" stroke="white" stroke-width="16"/>
            <rect x="32" y="32" width="192" height="64" rx="8" fill="white" opacity="0.9"/>
            <g transform="translate(32, 120)">
                <rect x="0" y="0" width="40" height="40" rx="8" fill="white" opacity="0.8"/>
                <text x="20" y="28" text-anchor="middle" font-family="Arial" font-size="20" fill="#2563eb">📏</text>
                <rect x="56" y="0" width="40" height="40" rx="8" fill="white" opacity="0.8"/>
                <text x="76" y="28" text-anchor="middle" font-family="Arial" font-size="20" fill="#2563eb">⚖️</text>
                <rect x="112" y="0" width="40" height="40" rx="8" fill="white" opacity="0.8"/>
                <text x="132" y="28" text-anchor="middle" font-family="Arial" font-size="20" fill="#2563eb">🥤</text>
                <rect x="168" y="0" width="40" height="40" rx="8" fill="white" opacity="0.8"/>
                <text x="188" y="28" text-anchor="middle" font-family="Arial" font-size="20" fill="#2563eb">🌡️</text>
                <g transform="translate(80, 56)">
                    <path d="M0 20 L40 20 M30 10 L40 20 L30 30" stroke="white" stroke-width="4" fill="none"/>
                </g>
                <rect x="0" y="72" width="40" height="40" rx="8" fill="white" opacity="0.8"/>
                <text x="20" y="100" text-anchor="middle" font-family="Arial" font-size="20" fill="#2563eb">⏰</text>
                <rect x="56" y="72" width="40" height="40" rx="8" fill="white" opacity="0.8"/>
                <text x="76" y="100" text-anchor="middle" font-family="Arial" font-size="20" fill="#2563eb">🏃</text>
                <rect x="112" y="72" width="40" height="40" rx="8" fill="white" opacity="0.8"/>
                <text x="132" y="100" text-anchor="middle" font-family="Arial" font-size="20" fill="#2563eb">📐</text>
                <rect x="168" y="72" width="40" height="40" rx="8" fill="white" opacity="0.8"/>
                <text x="188" y="100" text-anchor="middle" font-family="Arial" font-size="20" fill="#2563eb">⚡</text>
            </g>
        </g>
    </svg>